<svg xmlns="http://www.w3.org/2000/svg" viewBox="0 0 132.02 112.63" xmlns:v="https://vecta.io/nano"><path d="M131.52 72.34a10.26 10.26 0 0 0-10.26-10.26h-4.68a51 51 0 0 0-30.65-40.46l1.31-8.7A6.27 6.27 0 1 0 82.7 12l-2.41 7.6a51.33 51.33 0 0 0-28.13-.13L49.7 11.7a6.26 6.26 0 1 0-4.44 1.3l1.27 8.46a51 51 0 0 0-31.08 40.62h-4.69a10.26 10.26 0 0 0 0 20.52H17a50.84 50.84 0 0 0 8.86 17.4h13.71v10.32a1.85 1.85 0 0 0 1.85 1.85h49.19a1.85 1.85 0 0 0 1.84-1.85V100h13.71A50.84 50.84 0 0 0 115 82.6h6.27a10.26 10.26 0 0 0 10.26-10.26" fill="#231f20"/><path d="M131.52 72.34a10.26 10.26 0 0 0-10.26-10.26h-4.68a51 51 0 0 0-30.65-40.46l1.31-8.7A6.27 6.27 0 1 0 82.7 12l-2.41 7.6a51.33 51.33 0 0 0-28.13-.13L49.7 11.7a6.26 6.26 0 1 0-4.44 1.3l1.27 8.46a51 51 0 0 0-31.08 40.62h-4.69a10.26 10.26 0 0 0 0 20.52H17a50.84 50.84 0 0 0 8.86 17.4h13.71v10.32a1.85 1.85 0 0 0 1.85 1.85h49.19a1.85 1.85 0 0 0 1.84-1.85V100h13.71A50.84 50.84 0 0 0 115 82.6h6.27a10.26 10.26 0 0 0 10.25-10.26z" fill="none" stroke="#231f20" stroke-linejoin="round"/><path d="M44.55 8.19l4.23 28.26 8.48-.81-9.69-30.68-3.02 3.23zm43.4 0l-4.24 28.26-8.48-.81 9.69-30.68 3.03 3.23z" fill="#009db4"/><path d="M92.4,6.77A6.27,6.27,0,1,1,86.14.5,6.26,6.26,0,0,1,92.4,6.77" fill="#00abbf"/><path d="M91,5.06a3.62,3.62,0,1,1-3.62-3.63A3.62,3.62,0,0,1,91,5.06" fill="#6fc4d3"/><path d="M52.15,6.77A6.27,6.27,0,1,1,45.88.5a6.27,6.27,0,0,1,6.27,6.27" fill="#00abbf"/><path d="M48.42,5.06a3.63,3.63,0,1,1-3.63-3.63,3.63,3.63,0,0,1,3.63,3.63" fill="#6fc4d3"/><g fill="#009db4"><rect x="39.57" y="94.5" width="52.88" height="17.63" rx="1.85"/><path d="M131.52,72.34A10.26,10.26,0,0,1,121.26,82.6H10.76a10.26,10.26,0,0,1,0-20.52h110.5a10.26,10.26,0,0,1,10.26,10.26"/></g><path d="M106.16,100a51,51,0,1,0-80.3,0Z" fill="#6fc4d3"/><path d="M39.33,72.45A14.79,14.79,0,1,1,54.12,57.66,14.81,14.81,0,0,1,39.33,72.45" fill="#fff"/><path d="M39.33,41A16.64,16.64,0,1,0,56,57.66,16.66,16.66,0,0,0,39.33,41m0,3.69A12.95,12.95,0,1,1,26.39,57.66,13,13,0,0,1,39.33,44.71" fill="#009db4"/><path d="M92.05,72.45a14.79,14.79,0,1,1,14.79-14.79A14.81,14.81,0,0,1,92.05,72.45" fill="#fff"/><path d="M92.05,41a16.64,16.64,0,1,0,16.64,16.64A16.65,16.65,0,0,0,92.05,41m0,3.69A12.95,12.95,0,1,1,79.11,57.66,13,13,0,0,1,92.05,44.71" fill="#009db4"/><path d="M94.85 52.74a2.83 2.83 0 0 1-5.59 0 5.69 5.69 0 1 0 5.59 0m-52.72 0a2.84 2.84 0 0 1-5.6 0 5.69 5.69 0 1 0 5.6 0" fill="#231f20"/><path d="M43.53,79.07V89.83C49,93.14,57,95.24,66,95.24s17-2.1,22.48-5.41V79.07C83.05,82.38,75,84.49,66,84.49s-17-2.11-22.48-5.42" fill="#fff"/><g fill="none" stroke="#009db4" stroke-width="1.65"><path d="M43.53 79.07v10.76C49 93.14 57 95.24 66 95.24s17-2.1 22.48-5.41V79.07C83.05 82.38 75 84.49 66 84.49s-17-2.11-22.47-5.42z"/><path d="M51 92.9V82.14m7.5 12.72V84.11M66 95.5V84.74m7.5 10.53V84.51m7.5 9.1V82.85"/></g><path d="M125.21 79.18c1.44-6 .8-9.91-2.31-15.23 3.42-.52 6.71 2.47 7.35 6.67s-1.62 8-5 8.56m-118.44 0C5.37 73.14 6 69.27 9.12 64c-3.42-.52-6.71 2.47-7.35 6.67s1.62 8 5 8.56" fill="#00abbf"/></svg>