<?xml version="1.0" encoding="utf-8"?>
<!-- Generator: Adobe Illustrator 24.1.1, SVG Export Plug-In . SVG Version: 6.00 Build 0)  -->
<svg version="1.1" id="Layer_1" xmlns="http://www.w3.org/2000/svg" xmlns:xlink="http://www.w3.org/1999/xlink" x="0px" y="0px"
	 viewBox="0 0 34.7 34" style="enable-background:new 0 0 34.7 34;" xml:space="preserve">
<style type="text/css">
	.st0{fill:none;stroke:#000000;stroke-linecap:round;stroke-linejoin:round;stroke-miterlimit:10;}
	.st1{fill:#FAB594;}
	.st2{fill:#808285;}
	.st3{fill:#F9A882;}
	.st4{fill:#939598;}
	.st5{fill:#F1F2F2;}
	.st6{fill:#FFFFFF;}
	.st7{fill:#FBC3A6;}
	.st8{fill:#FDD1BA;}
	.st9{fill:#F79A72;}
	.st10{fill:#414042;}
</style>
<path d="M33,13.8c0.1-2.7-0.2-5.5-2.4-5.6c-0.7-2.7-1.1-3.4-4-3.4c-1.2-2.2-2.9-4.1-5.3-2.9c-4.1-3.3-7.5-0.1-7.5-0.1
	s-3.4-2.6-4.5,1.5C7.8,2.8,4.5,3.5,4.8,5.9C3.7,6.5,1.5,7.3,2.4,9.3c-0.8-0.1-3.3,2.3-0.8,4.2c-1.3,0.6-0.6,2.2,0.9,3.8
	C2.1,18.2,3.3,20.9,5,21l0,2.1l0,2.3c-0.2,0.3-0.2,0.7-0.5,1.2c-0.4,0.8,1,1.7,2.1,1.2c0.4-0.2,0.8-0.3,1.3-0.2
	c0.7,0.2,1.1-0.6,0.8-1c-0.4-0.6-0.7-1.1-1.1-1.4l-0.1-1l0-0.6c0.5,0.1,1.1,0,1.8-0.3c0.6,2.1,2.3,3.4,3.8,2.2
	c0,1.3,1.6,2.5,3.1,1.8l0,0.8l0,2.9c-0.2,0.3-0.2,0.7-0.5,1.2c-0.4,0.8,1,1.7,2.1,1.2c0.4-0.2,0.8-0.3,1.3-0.2
	c0.7,0.2,1.1-0.6,0.8-1c-0.4-0.6-0.7-1.1-1.1-1.4l-0.2-2.5c1.4,0.4,3.4-0.2,3.9-1.5c1,1.4,2.3,1.3,3.2,0.6l0,2
	c-0.2,0.3-0.2,0.7-0.5,1.2c-0.4,0.8,1,1.7,2.1,1.2c0.4-0.2,0.8-0.3,1.3-0.2c0.7,0.2,1.1-0.6,0.8-1c-0.4-0.6-0.7-1.1-1.1-1.4
	l-0.2-2.7l-0.1-0.7c0.8,0,1.5-0.2,2.1-0.6c0.9,0,1.6-0.2,2.3-0.5c0,0,0,0,0,0c0,0,0,0,0,0c1.3-0.7,2.1-1.8,2-2.4
	c-0.1-0.6-0.5-1.5-1-2.5C34,18.2,34.3,16.1,33,13.8"/>
<path class="st0" d="M33,13.8c0.1-2.7-0.2-5.5-2.4-5.6c-0.7-2.7-1.1-3.4-4-3.4c-1.2-2.2-2.9-4.1-5.3-2.9c-4.1-3.3-7.5-0.1-7.5-0.1
	s-3.4-2.6-4.5,1.5C7.8,2.8,4.5,3.5,4.8,5.9C3.7,6.5,1.5,7.3,2.4,9.3c-0.8-0.1-3.3,2.3-0.8,4.2c-1.3,0.6-0.6,2.2,0.9,3.8
	C2.1,18.2,3.3,20.9,5,21l0,2.1l0,2.3c-0.2,0.3-0.2,0.7-0.5,1.2c-0.4,0.8,1,1.7,2.1,1.2c0.4-0.2,0.8-0.3,1.3-0.2
	c0.7,0.2,1.1-0.6,0.8-1c-0.4-0.6-0.7-1.1-1.1-1.4l-0.1-1l0-0.6c0.5,0.1,1.1,0,1.8-0.3c0.6,2.1,2.3,3.4,3.8,2.2
	c0,1.3,1.6,2.5,3.1,1.8l0,0.8l0,2.9c-0.2,0.3-0.2,0.7-0.5,1.2c-0.4,0.8,1,1.7,2.1,1.2c0.4-0.2,0.8-0.3,1.3-0.2
	c0.7,0.2,1.1-0.6,0.8-1c-0.4-0.6-0.7-1.1-1.1-1.4l-0.2-2.5c1.4,0.4,3.4-0.2,3.9-1.5c1,1.4,2.3,1.3,3.2,0.6l0,2
	c-0.2,0.3-0.2,0.7-0.5,1.2c-0.4,0.8,1,1.7,2.1,1.2c0.4-0.2,0.8-0.3,1.3-0.2c0.7,0.2,1.1-0.6,0.8-1c-0.4-0.6-0.7-1.1-1.1-1.4
	l-0.2-2.7l-0.1-0.7c0.8,0,1.5-0.2,2.1-0.6c0.9,0,1.6-0.2,2.3-0.5c0,0,0,0,0,0c0,0,0,0,0,0c1.3-0.7,2.1-1.8,2-2.4
	c-0.1-0.6-0.5-1.5-1-2.5C34,18.2,34.3,16.1,33,13.8z"/>
<polygon class="st1" points="16.1,21.4 16,31 18.6,31 17.9,22.2 "/>
<path class="st2" d="M19.7,32.2c0.3,0.5-0.1,1.2-0.8,1c-0.5-0.1-0.8,0-1.3,0.2c-1.1,0.5-2.5-0.4-2.1-1.2c0.5-1,0-1.6,2.1-1.6
	C18.7,30.6,19,31.2,19.7,32.2"/>
<polygon class="st1" points="25.6,19.9 25.4,29.5 28,29.5 27.4,20.6 "/>
<path class="st2" d="M29.2,30.7c0.3,0.5-0.1,1.2-0.8,1c-0.5-0.1-0.8,0-1.3,0.2c-1.1,0.5-2.5-0.4-2.1-1.2c0.5-1,0-1.6,2.1-1.6
	C28.2,29.1,28.5,29.7,29.2,30.7"/>
<polygon class="st1" points="5,15.8 4.9,25.4 7.5,25.4 6.8,16.6 "/>
<polygon class="st3" points="16.1,21.4 16,28.1 18.4,29.1 17.9,22.2 "/>
<polygon class="st3" points="25.6,19.9 25.5,28.3 27.8,26.6 27.4,20.6 "/>
<polygon class="st3" points="5,15.8 4.9,23.1 7.4,24.2 6.8,16.6 "/>
<path class="st2" d="M8.6,26.6c0.3,0.5-0.1,1.2-0.8,1c-0.5-0.1-0.8,0-1.3,0.2c-1.1,0.5-2.5-0.4-2.1-1.2c0.5-1,0-1.6,2.1-1.6
	C7.7,25,8,25.6,8.6,26.6"/>
<polygon class="st4" points="14.2,14.3 14,23.9 16.6,23.9 16,15 "/>
<path class="st2" d="M17.8,25.1c0.3,0.5-0.1,1.2-0.8,1c-0.5-0.1-0.8,0-1.3,0.2c-1.1,0.5-2.5-0.4-2.1-1.2c0.5-1,0-1.6,2.1-1.6
	C16.8,23.5,17.1,24.1,17.8,25.1"/>
<path class="st5" d="M13.7,1.9c0,0-3.4-2.6-4.5,1.5C7.8,2.8,4.5,3.5,4.8,5.9C3.7,6.5,1.5,7.3,2.4,9.3c-0.8-0.1-3.3,2.3-0.8,4.2
	c-1.3,0.6-0.6,2.2,0.9,3.8c-0.4,0.9,1,4.2,3,3.7c0.3,2.2,1.9,3.1,3.7,2.2c0.6,2.1,2.3,3.4,3.8,2.2c0,1.5,2.3,3,3.9,1.2
	c0.1,2.4,4.7,2.3,5.4,0.2c1.7,2.3,4,0.6,4.3-1c1.6,0.3,3.5,0.1,4.2-1.7c0.7-1.9,4.9-5.5,2.2-10.2c0.1-2.7-0.2-5.5-2.4-5.6
	c-0.7-2.7-1.1-3.4-4-3.4c-1.2-2.2-2.9-4.1-5.3-2.9C17.1-1.3,13.7,1.9,13.7,1.9"/>
<path class="st6" d="M14.7,2.7c0,0-3.2-2.4-4.2,1.4c-1.2-0.5-4.3,0.1-4,2.4c-1,0.5-3.1,1.3-2.3,3.1c-0.7-0.1-3.1,2.2-0.7,3.9
	c-1.2,0.5-0.5,2.1,0.8,3.6C3.9,18,5.3,21,7.1,20.6c0.3,2.1,1.8,2.9,3.4,2.1c0.5,1.9,2.2,3.1,3.5,2.1c0,1.4,2.2,2.8,3.6,1.1
	c0.1,2.3,4.3,2.2,5.1,0.2c1.5,2.2,3.7,0.5,4-1c1.4,0.3,3.3,0.1,3.9-1.6c0.6-1.7,4.5-5.1,2.1-9.5c0.1-2.5-0.2-5.1-2.3-5.2
	c-0.6-2.5-1-3.1-3.7-3.1c-1.1-2.1-2.7-3.8-5-2.7C17.9-0.2,14.7,2.7,14.7,2.7"/>
<path class="st1" d="M28,12.9c0,0,1.1-2.6,2.9-1.7c1.9,0.9,2.3,2.5,1.2,2.5c-1.1,0-2.3-0.7-3.1-0.6C28.3,13.2,28,12.9,28,12.9"/>
<path class="st7" d="M29.1,13.1c-0.8,0.1-1.1-0.2-1.1-0.2s1.1-2.6,2.9-1.7C30.9,11.2,30.4,13,29.1,13.1"/>
<path class="st8" d="M25.6,11.1c0,0,2.2-0.4,4.4,1.7c2.1,2.1,2.1,2.6,2.1,4.1c0,1.5,1.9,4.3,2.1,5.5s-2.9,4.2-7.1,2.4
	C23,23,23.7,22,22.6,20.6C21.3,18.9,18.5,13,25.6,11.1"/>
<path class="st9" d="M30,23.7c0.1,0.3,2.7,0.1,2.7,0.1c0.3,0,0.6-0.2,0.8-0.4l0.5-0.6c0.2-0.2,0.1-0.3-0.2-0.3
	C33.8,22.5,29.9,23.4,30,23.7"/>
<path class="st8" d="M23.9,14.2c0,0-1.6-3.1-4.7,0.1c-3.1,3.2-1.6,3.4,1.2,1.9c2.8-1.5,3.5-1.9,3.5-1.9L23.9,14.2z"/>
<path class="st1" d="M23.9,14.3c0,0-0.6,0.4-3.5,1.9c-2.8,1.5-4.3,1.2-1.2-2C19.2,14.3,16.7,17.9,23.9,14.3"/>
<path class="st10" d="M31.7,16.8c0.1,0.7-0.1,1.4-0.6,1.5c-0.4,0.1-0.9-0.4-1-1.1c-0.1-0.7,0.1-1.4,0.6-1.5
	C31.1,15.6,31.5,16.1,31.7,16.8"/>
<path class="st6" d="M30.9,16.7c0.1,0.2,0.2,0.3,0.3,0.3c0.1,0,0.2-0.2,0.1-0.5c-0.1-0.2-0.2-0.3-0.3-0.3
	C30.9,16.3,30.8,16.5,30.9,16.7"/>
<path class="st10" d="M28,17.6c0.3,0.7,0.1,1.4-0.3,1.6c-0.4,0.2-1-0.2-1.2-0.9c-0.3-0.7-0.1-1.4,0.3-1.6
	C27.2,16.5,27.7,16.9,28,17.6"/>
<path class="st6" d="M27.2,17.7c0,0.2,0.2,0.4,0.3,0.4c0.1,0,0.2-0.2,0.2-0.4c0-0.2-0.2-0.4-0.3-0.4C27.3,17.3,27.2,17.5,27.2,17.7"
	/>
<path class="st5" d="M25.8,10.6c0.3-0.7,2.2-1.2,2.6,0c1.3,0.3,2.3,1.6,1.8,2.6c-0.5,1-0.6,0.5-2.1,0.9c-0.4,0.9-0.9,1.1-2.4,0.8
	c-1,1.1-2.1,0.5-2.4-0.2c-0.5,0-1.2-0.2-0.9-1.3c-0.8-0.9-0.5-1.9,0.8-2C23.9,10.4,24.6,10.2,25.8,10.6"/>
<path class="st9" d="M33,23.7c0,0-0.3,0.8-0.9,1.1c0,0,0.1-0.1,0.4-0.4c0.3-0.4,0.4-0.7,0.4-0.7L33,23.7z"/>
</svg>
