<svg xmlns="http://www.w3.org/2000/svg" xmlns:xlink="http://www.w3.org/1999/xlink" viewBox="0 0 175.89 143.55" xmlns:v="https://vecta.io/nano"><style><![CDATA[.R{fill:none}.S{stroke-linejoin:round}.T{stroke-width:3.52}.U{fill:#90bb62}.V{stroke:#90bb62}.W{fill:#96be6b}.X{stroke:#96be6b}]]></style><path d="M100.81 12.09a13.48 13.48 0 0 1 0-3.67 5.38 5.38 0 0 0 0 3.67M141 73.47a5.11 5.11 0 0 0 .93-.24c.12.5.17 1 .25 1.46l-1.1-.76a1.58 1.58 0 0 0-.08-.46M108.69 31.4c-4.78-4.57-9.59-9-12.46-11.21C91 15.81 89.22 8.8 89.44 8c0 0-.29 8.44 9.34 19C67.9 18.92 45.5 52.53 45.5 52.53 11.92 84.85 9.67 95.35 9.67 95.35A49.54 49.54 0 0 0 8.2 112a20.63 20.63 0 0 0 1.39 6.5 19.46 19.46 0 0 0 15.46 12.8s.53.06 1.27.2 1.25.34 1.92.48a254 254 0 0 0 48.16 3.45 151.68 151.68 0 0 0 32.23-3.72c.72-.18 1.5-.21 2.21-.39a54.45 54.45 0 0 0 6.21-2.08c.76-.29 1.54-.46 2.26-.71a40.91 40.91 0 0 0 12.28-8 32.32 32.32 0 0 0 11-18.47v.21c-.8 9.72 13.47 6 13.47 6-2.64.66-7.37-1.11-6.24-9.44a23.71 23.71 0 0 0-.27-5.84c4.64-7-1.35-13.71-5.78-17.23-.36-.69-.81-1.63-1.07-2.14 3.9 5.23 8.56 9.83 12.32 8.17 5.3-2.34 2.72-12.29 2.72-12.29a29.24 29.24 0 0 1-4.5-.49c.64-.25 1.26-.47 2-.79 14.67-6.22 12.58-20 12.58-20-1 .91-7 7.17-10.37 8.78a64.64 64.64 0 0 1-12.34 3.82c2.61-3.59 6.37-7.84 10.85-9.9a45.44 45.44 0 0 0-9.88-1.19A73.22 73.22 0 0 1 164.56 37c-5.95-1.19-14.82-2.17-19.76-1.51 3.06-5.09 7.61-11.74 12.19-14.5 0 0-23.13 9.47-26.86 20.72a49.8 49.8 0 0 1 6.4-16.18s7.16-12.08 8.44-12.9c0 0-20.39 4.4-22.33 20.43a53.45 53.45 0 0 0-16-14.74c-3.82-2.33-5.28-4.51-5.87-6.27.5 3.87 2.59 10.54 10.42 19.42l3.25 3.93a107.84 107.84 0 0 0-5.75-4" fill="#231f20"/><path d="M100.83 8.42a5.38 5.38 0 0 0 0 3.67 13.48 13.48 0 0 1 0-3.67zM142 73.23c.12.5.17 1 .25 1.46l-1.1-.76a1.58 1.58 0 0 0-.08-.46 5.11 5.11 0 0 0 .93-.24zm-45.74-53C91 15.81 89.22 8.8 89.44 8c0 0-.29 8.44 9.34 19C67.9 18.92 45.5 52.53 45.5 52.53 11.92 84.85 9.67 95.35 9.67 95.35A49.54 49.54 0 0 0 8.2 112a20.63 20.63 0 0 0 1.39 6.5 19.46 19.46 0 0 0 15.46 12.8s.53.06 1.27.2 1.25.34 1.92.48a254 254 0 0 0 48.16 3.45 151.68 151.68 0 0 0 32.23-3.72c.72-.18 1.5-.21 2.21-.39a54.45 54.45 0 0 0 6.21-2.08c.76-.29 1.54-.46 2.26-.71a40.91 40.91 0 0 0 12.28-8 32.32 32.32 0 0 0 11-18.47v.21c-.8 9.72 13.47 6 13.47 6-2.64.66-7.37-1.11-6.24-9.44a23.71 23.71 0 0 0-.27-5.84c4.64-7-1.35-13.71-5.78-17.23-.36-.69-.81-1.63-1.07-2.14 3.9 5.23 8.56 9.83 12.32 8.17 5.3-2.34 2.72-12.29 2.72-12.29a29.24 29.24 0 0 1-4.5-.49c.64-.25 1.26-.47 2-.79 14.67-6.22 12.58-20 12.58-20-1 .91-7 7.17-10.37 8.78a64.64 64.64 0 0 1-12.34 3.82c2.61-3.59 6.37-7.84 10.85-9.9a45.44 45.44 0 0 0-9.88-1.19A73.22 73.22 0 0 1 164.56 37c-5.95-1.19-14.82-2.17-19.76-1.51 3.06-5.09 7.61-11.74 12.19-14.5 0 0-23.13 9.47-26.86 20.72a49.8 49.8 0 0 1 6.4-16.18s7.16-12.08 8.44-12.9c0 0-20.39 4.4-22.33 20.43a53.45 53.45 0 0 0-16-14.74c-3.82-2.33-5.28-4.51-5.87-6.27.5 3.87 2.59 10.54 10.42 19.42l3.25 3.93a107.84 107.84 0 0 0-5.75-4c-4.78-4.57-9.59-9.03-12.46-11.21z" stroke="#231f20" stroke-width="16" class="R S"/><path d="M141.32,66.66c-2.17.15-6-3.39-6.78-7.13s4-7.49,4-7.49c3.74-4.57,17.37-1.11,17.37-1.11-8.42,3.89-14.58,15.73-14.58,15.73" class="U"/><path d="M134.54 59.53c-.68-3.71 4-7.49 4-7.49 3.74-4.57 17.37-1.11 17.37-1.11-8.42 3.89-14.58 15.73-14.58 15.73-2.18.15-6.01-3.39-6.79-7.13z" class="R S T V"/><path d="M139.29,104.53l8.44-9c11.5-11.1-7.74-22.34-7.74-22.34Z" fill="#a3c57e"/><path d="M139.29,104.53l8.44-9c11.5-11.1-7.74-22.34-7.74-22.34Z" stroke="#a3c57e" class="R S T"/><path d="M136.49,25.57c-10,17-6.23,27.18-6.23,27.11-4.88-.68-8.29-8-8.29-8l.49-10.79C123.73,17.14,145,12.64,145,12.64c-1.31.86-8.48,12.93-8.48,12.93" class="U"/><path d="M130.26 52.68c-4.88-.68-8.29-8-8.29-8l.49-10.79C123.73 17.14 145 12.64 145 12.64c-1.31.86-8.48 12.93-8.48 12.93-10 17.01-6.26 27.18-6.26 27.11z" class="R S T V"/><path d="M142.64,84c.68-11.63-9.32-27.26-9.35-27.29-5.52-15.17-29.59-28.37-29.59-28.37-33.4-13.27-58.19,24-58.19,24C11.93,84.71,9.68,95.21,9.68,95.21c-8.16,33.74,15.38,36,15.38,36s52.14,9.89,87.87-.59S142.64,84,142.64,84" fill="#ec1c24"/><path d="M133.29 56.75c-5.52-15.17-29.59-28.37-29.59-28.37-33.4-13.27-58.19 24-58.19 24C11.93 84.71 9.68 95.21 9.68 95.21c-8.16 33.74 15.38 36 15.38 36s52.14 9.89 87.87-.59S142.64 84 142.64 84c.68-11.59-9.32-27.22-9.35-27.25z" stroke="#ec1c24" class="R S T"/><path d="M118.52 67.45s2.49-1.12.18-8.55-11.88-5.31-11.88-5.31c-9.59-7.59-12.45 7.84-12.45 7.84-3.86 1.57-4.68 7.17-4.68 7.17 12.53-9.54 9.31 4.92 9.31 4.92 3 9.25 12.79 4.83 12.79 4.83 13.33 5.35 17.79-4.88 17.79-4.88-.65-8.86-11.1-6-11.1-6" fill="#f05b40"/><path d="M118.7 58.9c-2.38-7.42-11.88-5.31-11.88-5.31-9.59-7.59-12.45 7.84-12.45 7.84-3.86 1.57-4.68 7.17-4.68 7.17 12.53-9.54 9.31 4.92 9.31 4.92 3 9.25 12.79 4.83 12.79 4.83 13.33 5.35 17.79-4.88 17.79-4.88-.65-8.86-11.1-6-11.1-6s2.52-1.14.22-8.57z" stroke="#f05b40" class="R T"/><use xlink:href="#B" class="U"/><use xlink:href="#B" class="R S T V"/><use xlink:href="#C" class="W"/><use xlink:href="#C" class="R S T X"/><path d="M141.71,72c4,13.47.87,30.37.9,30.33-.8,9.72,13.48,6,13.48,6-2.68.69-7.41-1.08-6.32-9.3,1.34-10.76-8.06-27-8.06-27" class="W"/><path d="M142.61 102.31c-.8 9.72 13.48 6 13.48 6-2.68.69-7.41-1.08-6.32-9.3 1.34-10.76-8.06-27-8.06-27 3.98 13.44.87 30.34.9 30.3z" class="R S T X"/><use xlink:href="#D" class="U"/><use xlink:href="#D" stroke-width="3.95" class="R S V"/><path d="M164.56 37c-7-1.49-18.61-2.69-22.29-1.1s-10.05 20.2-10.05 20.2c-.76 2 4.63 8.62 4.63 8.62C140 47.79 164.56 37 164.56 37" class="W"/><path d="M142.27 35.91c-3.68 1.6-10.05 20.19-10.05 20.19-.76 2 4.63 8.62 4.63 8.62C140 47.79 164.56 37 164.56 37c-7.04-1.48-18.56-2.68-22.29-1.09z" class="R S T X"/><path d="M134.18,61.88c-4-1.46-6.06-8.8-6.09-8.84l2-11.29C133.79,30.47,157,21,157,21c-7.82,4.69-15.74,20.91-15.74,20.91-5,12.77-7,20-7,20" fill="#a3c57e"/><path d="M128.09 53l2-11.29C133.79 30.47 157 21 157 21c-7.82 4.69-15.74 20.91-15.74 20.91-5 12.77-7 20-7 20-4.11-1.49-6.14-8.83-6.17-8.91z" stroke="#a3c57e" class="R S T"/><use xlink:href="#E" class="W"/><use xlink:href="#E" class="R S T X"/><path d="M135.35 64.94c24.43 49.09-16 63.59-16 63.66-38.76 13.46-91.07 3.4-91.07 3.4-26.13-5.25-19.35-28.34-19.35-28.34 3.69-7.07 10.14-3.7 10.14-3.7 4.64-3.22 8.55.85 8.55.85 4.18-1.58 7.56 1.76 7.56 1.76 4.3-9.8 11.56-3.25 11.56-3.25 1-10.49 14.43-4.78 14.43-4.78s.58-11.74 9.51-8.33c23 8.8 33.19 9.13 43.83 4.49 5.24-2.34 7.66-11.31 16.62-10.76 6.52.41 4.22-15 4.22-15" fill="#ef4e37"/><path d="M119.35 128.6c-38.76 13.46-91.07 3.4-91.07 3.4-26.13-5.25-19.35-28.34-19.35-28.34 3.69-7.07 10.14-3.7 10.14-3.7 4.64-3.22 8.55.85 8.55.85 4.18-1.58 7.56 1.76 7.56 1.76 4.3-9.8 11.56-3.25 11.56-3.25 1-10.49 14.43-4.78 14.43-4.78s.58-11.74 9.51-8.33c23 8.8 33.19 9.13 43.83 4.49 5.24-2.34 7.66-11.31 16.62-10.76 6.52.41 4.22-15 4.22-15 24.43 49.06-16 63.59-16 63.66z" stroke="#ef4e37" class="R S T"/><path d="M143.14,91.7c3.22,31.46-32.26,39.55-32.22,39.59-28.36,7.08-64,2.68-64,2.68.85-2.47,5.33-5.2,5.33-5.2,3.11-2.44,10.55,1.87,10.55,1.87,9.18,2.64,10,.85,10,.85,1.55-4.53,9.22-3.82,9.22-3.82,4.64-14.85,14.67-6.82,14.67-6.82,2.61-4.48,13.49-1.36,13.49-1.36.93-7.13,8.75-9.53,8.75-9.53,3.47-11,13.94-7.31,13.94-7.31,1.11-7.16,10.23-11,10.23-11" fill="#f16548"/><path d="M110.92 131.29c-28.36 7.08-64 2.68-64 2.68.85-2.47 5.33-5.2 5.33-5.2 3.11-2.44 10.55 1.87 10.55 1.87 9.18 2.64 10 .85 10 .85 1.55-4.53 9.22-3.82 9.22-3.82 4.64-14.85 14.67-6.82 14.67-6.82 2.61-4.48 13.49-1.36 13.49-1.36.93-7.13 8.75-9.53 8.75-9.53 3.47-11 13.94-7.31 13.94-7.31 1.11-7.16 10.23-11 10.23-11 3.26 31.51-32.22 39.6-32.18 39.64z" stroke="#f16548" class="R T"/><path d="M77 104.14a3.4 3.4 0 0 0-3 1.42c-.72 3.5 3.62 1.3 3.62 1.3 2.86-2.2-.65-2.72-.65-2.72m4.82-36.5c-2.16.15-3.33 2.57-3.33 2.57 0 4.77 4.81.75 4.81.75 3-3.61-1.48-3.32-1.48-3.32m-6.29 54.67a3.37 3.37 0 0 0-2.94.79c-1.27 3.05 3 1.8 3 1.8 3-1.56 0-2.59 0-2.59m-6.21-42.59c-.09 4.34 4.35.69 4.35.69 2.77-3.33-1.31-3.06-1.31-3.06-2 .15-3 2.37-3 2.37m-5.19 35.21a3.44 3.44 0 0 0-2.87 1c-1.1 3.17 3.14 1.6 3.14 1.6 2.87-1.75-.27-2.6-.27-2.6m.53-11.57a3.51 3.51 0 0 0-2.56 2c0 3.6 3.79.52 3.79.52 2.32-2.79-1.23-2.53-1.23-2.53m44.22-16.81c-1 4.59 4.55 1.73 4.52 1.7 3.7-2.91-.73-3.54-.73-3.54-2.1-.3-3.79 1.84-3.79 1.84M78.28 132.2a2.69 2.69 0 0 0-2.31.28c-1.33 2.16 2.08 1.68 2.08 1.68 2.41-.84.23-2 .23-2m-3.19-75.05c-1.93 2.1 1.47 2.58 1.44 2.54a2.82 2.82 0 0 0 3.18-1.55c-.29-3.65-4.62-1-4.62-1m21.25 72.2a3 3 0 0 0-2.55.84c-1.05 2.85 2.76 1.47 2.76 1.47 2.58-1.54-.21-2.31-.21-2.31m8.07-7.3c-1.77-.54-3.5 1-3.54.94-1.58 3.74 3.61 2.18 3.61 2.18 3.59-1.85-.07-3.12-.07-3.12m6.74-26.55c-5.5-.25-4.25 4.82-4.25 4.82 5.41-1.55 4.25-4.82 4.25-4.82m-4.81 19.26c3.15-2.48-.67-3-.67-3-1.83-.3-3.26 1.55-3.26 1.55-.88 3.92 3.93 1.49 3.93 1.49m-5.28-9c-3.78-3.18-5.48 1.62-5.48 1.62 4.66 1.7 5.48-1.62 5.48-1.62m-12.3-5.27c-1.94-.26-3.36 1.58-3.4 1.62-.82 4 4.14 1.49 4.14 1.49 3.26-2.57-.74-3.11-.74-3.11m2.68-26.18c-2.16.15-3.37 2.6-3.33 2.57 0 4.77 4.81.75 4.81.75 3-3.61-1.48-3.32-1.48-3.32m-.07 37.64a3.74 3.74 0 0 0-3 1.7c-.56 3.76 3.8 1.13 3.8 1.13 2.8-2.56-.83-2.83-.83-2.83M90 122.7c-1.87-.12-3.16 1.8-3.16 1.8-.57 4 4 1.17 4 1.17 3-2.69-.89-3-.89-3m-25.58 2.78a3 3 0 0 0-2.61.69c-1.19 2.78 2.68 1.61 2.68 1.61 2.68-1.36-.07-2.3-.07-2.3m-7.32 7a2.46 2.46 0 0 0-2.31.28c-1.34 2.16 2.08 1.68 2.08 1.68 2.41-.84.23-2 .23-2M34.69 94.77c-2.07-2.64-4.19 1.23-4.19 1.12-.5 2.38 2.5 1.35 2.5 1.35a2.24 2.24 0 0 0 1.74-2.47m-9.76.86a2.24 2.24 0 0 0 1.29-2.73c-2.48-2.27-3.94 1.83-3.94 1.83 0 2.4 2.65.9 2.65.9m0 30.58a3.19 3.19 0 0 0-2.77-.38c-2.43 2.08 1.68 2.52 1.68 2.52 3.12-.21 1.09-2.14 1.09-2.14M13 103.42a2.89 2.89 0 0 0-2 1.79c.25 2.94 3.14.18 3.14.18 1.7-2.43-1.18-2-1.18-2m.74 14.6c-3.19-.67-1 2.89-1 2.86 2.08 2.35 2.35-.46 2.35-.46.13-1.34-1.37-2.4-1.37-2.4m7.73-5.16c-3.15-.64-1 2.89-1 2.86 2.08 2.35 2.35-.46 2.35-.46.14-1.34-1.37-2.4-1.37-2.4m1.22-10.37c-1.67.24-2.4 2.19-2.4 2.19.33 3.62 3.84.21 3.84.21 2.08-3-1.44-2.4-1.44-2.4m10.16 5.88a3.7 3.7 0 0 0-3.24.45c-1.81 3.13 3 2.37 3 2.37 3.41-1.3.2-2.82.2-2.82M53.22 97.6a3.38 3.38 0 0 0-2.57 2c0 3.6 3.8.52 3.8.52 2.32-2.79-1.23-2.53-1.23-2.53M32.4 119.23a3.54 3.54 0 0 0-3.33 0c-2.18 2.87 2.71 2.74 2.71 2.74 3.57-.75.62-2.73.62-2.73M60 79.39c-.06 4.31 4.38.73 4.35.7C67.12 76.75 63 77 63 77c-1.95.16-3 2.37-3 2.37m-2.59-12.15c-1.95.16-3 2.37-3 2.37-.1 4.34 4.35.7 4.35.7 2.77-3.34-1.31-3.07-1.31-3.07M53 119.12a3.67 3.67 0 0 0-3.18.81c-1.42 3.33 3.3 2 3.3 2 3.23-1.66-.12-2.8-.12-2.8m-13-18.24a3.69 3.69 0 0 0-2 2.63c1 3.48 3.84-.53 3.84-.53 1.49-3.32-1.85-2.1-1.85-2.1m3.64 11.62a3.73 3.73 0 0 0-3.27-.47c-2.52 2.57 2.34 3.08 2.34 3.08 3.61-.26.93-2.61.93-2.61M50.1 60.1c.32 2.42 2.73.55 2.74.48a2.25 2.25 0 0 0 .87-2.9c-2.77-1.86-3.61 2.42-3.61 2.42m-7.46 66.14c-3.23-2.72-4.72 1.27-4.72 1.27 4 1.49 4.72-1.27 4.72-1.27m12.43-16.46c3-2.06-.48-2.75-.48-2.82a3.81 3.81 0 0 0-3.06 1.24c-.94 3.49 3.54 1.58 3.54 1.58M73.2 47.41c-1.35 2.45 2 2.14 2.06 2.18a2.79 2.79 0 0 0 2.68-2.25c-1.11-3.51-4.74.07-4.74.07m3.73-9.62c-1.31-3.07-4.31.08-4.35.05-1 2.21 2 1.93 2 1.93a2.25 2.25 0 0 0 2.32-2m-8.45 57.71c3.31-2.75-.7-3.22-.74-3.25-2-.2-3.44 1.78-3.44 1.78-.86 4.24 4.18 1.47 4.18 1.47m22.31-56.24c-.66-3.32-4.24-.87-4.28-.83-1.46 1.87 1.6 2.26 1.6 2.26a2.26 2.26 0 0 0 2.68-1.43M88 33.42c5.55.68 5.85-2 5.89-2-4.87-1.85-5.89 2-5.89 2m3.19 13.72c-.47-3.63-4.63-.78-4.67-.82-1.76 2.22 1.62 2.52 1.62 2.52a2.78 2.78 0 0 0 3-1.7m23 55.74c-1.74.24-2.54 2.25-2.58 2.28.22 3.8 4 .33 4 .33 2.26-3.08-1.37-2.61-1.37-2.61M70 67.09c3.17-2.89-.88-3.18-.88-3.18-2-.13-3.37 1.93-3.37 1.93-.66 4.24 4.25 1.25 4.25 1.25M47.48 77.9a2.63 2.63 0 0 0 1.42-3.19c-2.53-2.62-4.2 2.14-4.2 2.14-.13 2.82 2.78 1.05 2.78 1.05m-10 6.85a2.23 2.23 0 0 0 .87-2.89c-2.78-1.86-3.61 2.42-3.61 2.42.28 2.38 2.74.47 2.74.47m2.49-12.82c4.74-3 3.39-5.18 3.35-5.22-4.94 1.54-3.35 5.22-3.35 5.22M17.32 92.7a2.27 2.27 0 0 0 1.29-2.7c-2.47-2.27-3.93 1.83-3.93 1.83 0 2.4 2.64.9 2.64.9M25 86.9c4.73-3 3.38-5.18 3.35-5.21C23.41 83.23 25 86.9 25 86.9m37-30.29c6.64-1.46 6-4.6 6-4.6-6.32-.25-6 4.6-6 4.6m-8.41 32.28c-1 2.68 2.31 1.87 2.31 1.87a2.81 2.81 0 0 0 2.38-2.57c-1.61-3.33-4.69.7-4.69.7m32.87-30.66c-.08 4.74 4.77.72 4.8.76 3-3.61-1.47-3.32-1.47-3.32-2.13.11-3.33 2.56-3.33 2.56M58.31 47.75c6.46-2.32 5.4-5.34 5.4-5.34-6.39.56-5.4 5.34-5.4 5.34m-12.5 42.62c-2.09-3-4.52 1.42-4.48 1.46-.59 2.76 2.55 1.46 2.55 1.46a2.79 2.79 0 0 0 1.93-2.92M77.2 32c5.56.61 5.89-2 5.89-2-4.87-1.85-5.89 2-5.89 2m52.47 85.1c-5.22.36-4.51 4.31-4.51 4.24 5.31-1.73 4.51-4.24 4.51-4.24m10.17-28.35c-.09-3.29-2.28-1-2.28-1a3.35 3.35 0 0 0-.53 2.91c2.15 2.43 2.81-1.89 2.81-1.89m-1 13.25c-5.17.93-2.48 5.57-2.48 5.57 4.61-2.65 2.48-5.57 2.48-5.57m-14-7c-1.56.81-1.66 3-1.66 3 1.47 3.53 3.83-1 3.83-1 1-3.66-2.17-2-2.17-2m-48 .16c-.85 4 4.11 1.46 4.14 1.5 3.27-2.57-.74-3.11-.74-3.11a4.23 4.23 0 0 0-3.4 1.61m43.14 20.47c-5.17-.41-5 3.59-5 3.59 5.49-1 5-3.59 5-3.59m4.44-29.52c.31 4.71 4.86.36 4.86.36 2.68-3.87-1.73-3.22-1.73-3.22-2.13.32-3.13 2.86-3.13 2.86m3 21.56c-1.74.23-2.54 2.25-2.58 2.28.22 3.79 4 .32 4 .32 2.26-3.07-1.37-2.6-1.37-2.6m-12.2 18a3.11 3.11 0 0 0-2.62.69c-1.18 2.77 2.69 1.61 2.69 1.61 2.68-1.36-.07-2.3-.07-2.3m-21-38.12c-.08 4.73 4.81.75 4.77.78 3-3.64-1.44-3.35-1.44-3.35-2.12.12-3.33 2.57-3.33 2.57m17.45-36.74a3 3 0 0 0 3.22-1.44c-.19-3.69-4.58-1.17-4.58-1.17-2 2.07 1.36 2.61 1.36 2.61m-8.1-6.8a2.78 2.78 0 0 0 2.75-2.17c-1.07-3.55-4.73 0-4.73 0-1.42 2.44 2 2.18 2 2.18m19.9 18.55c-.69 4.28 4.22 1.29 4.25 1.26 3.18-2.9-.87-3.19-.87-3.19-2-.13-3.38 1.93-3.38 1.93m-45 53.89c2.57-2.08-.85-2.41-.85-2.41a3.29 3.29 0 0 0-2.74 1.36c-.43 3.16 3.59 1.05 3.59 1.05M84 83c-2.17.15-3.37 2.6-3.34 2.57 0 4.77 4.81.75 4.81.75C88.47 82.75 84 83 84 83m16.6-25.57c-2.08.55-2.8 3.16-2.84 3.2.78 4.63 4.85-.17 4.85-.17 2.31-4.13-2-3-2-3m23.26 18.39c3.5-3.19-1-3.5-1-3.5-2.19-.18-3.7 2.09-3.7 2.09-.71 4.7 4.67 1.41 4.67 1.41m-16.6-13.31c-1.14 4.62 4.51 1.84 4.51 1.84 3.77-2.83-.65-3.6-.65-3.6-2.14-.35-3.86 1.76-3.86 1.76m2.42 8.74c-2.19 0-3.57 2.31-3.53 2.35-.47 4.68 4.72 1.1 4.72 1.1 3.26-3.39-1.19-3.45-1.19-3.45" fill="#ec1c24"/><path d="M140.62 88c-.1-3.22-2.32-1-2.29-1a3.33 3.33 0 0 0-.52 2.91c2.19 2.38 2.81-1.91 2.81-1.91m-15.06 6.23c-1.56.82-1.66 3-1.66 3 1.46 3.53 3.83-1 3.83-1 1-3.66-2.17-2-2.17-2m2.62-11.72c-2.13.33-3.13 2.86-3.1 2.9.31 4.72 4.83.33 4.83.33 2.69-3.87-1.73-3.23-1.73-3.23m-13.27 19.59c-1.74.24-2.58 2.29-2.58 2.29.21 3.79 3.94.32 3.94.32 2.27-3.08-1.36-2.61-1.36-2.61m-61.19 16.28a3.64 3.64 0 0 0-3.19.8c-1.42 3.33 3.3 2 3.3 2 3.23-1.65-.11-2.79-.11-2.79m11.51 6.32a3.12 3.12 0 0 0-2.61.7c-1.19 2.77 2.68 1.6 2.68 1.6 2.68-1.36-.07-2.3-.07-2.3m-.29-10.54a3.47 3.47 0 0 0-2.88 1c-1.1 3.17 3.15 1.6 3.15 1.6 2.87-1.74-.27-2.59-.27-2.59m.53-11.5a3.61 3.61 0 0 0-2.6 2c0 3.64 3.82.57 3.82.57 2.32-2.79-1.22-2.53-1.22-2.53m23.71 10.21C88.61 116.62 93 114 93 114c2.8-2.56-.83-2.84-.83-2.84a3.91 3.91 0 0 0-3 1.71m.35-13.17c-1.93-.27-3.39 1.61-3.39 1.61-.82 4 4.13 1.5 4.13 1.5 3.27-2.57-.74-3.11-.74-3.11m-10.38 16c2.54-2.11-.91-2.41-.84-2.41a3.32 3.32 0 0 0-2.75 1.36c-.43 3.16 3.59 1 3.59 1m32.78-21c-5.51-.25-4.25 4.83-4.25 4.83 5.41-1.56 4.25-4.83 4.25-4.83M101.8 105c-3.74-3.21-5.48 1.62-5.48 1.62 4.66 1.7 5.48-1.62 5.48-1.62m-24-1.64a3.72 3.72 0 0 0-3 1.42c-.72 3.51 3.62 1.3 3.62 1.3 2.86-2.2-.65-2.72-.65-2.72m-1.48 18.18a3.39 3.39 0 0 0-2.93.78c-1.27 3.05 3 1.8 3 1.8 3-1.56-.06-2.58-.06-2.58m26.83-9.06c-.89 3.92 3.92 1.49 3.88 1.53 3.2-2.51-.63-3.07-.63-3.07-1.83-.3-3.25 1.54-3.25 1.54M54 96.86a3.39 3.39 0 0 0-2.56 2c0 3.61 3.79.53 3.79.53C57.51 96.6 54 96.86 54 96.86m-31.77 15.23c-3.15-.64-1 2.88-1 2.85 2.08 2.36 2.35-.46 2.35-.46.13-1.33-1.37-2.39-1.37-2.39m33.6-3.09c3-2-.44-2.77-.47-2.81a3.82 3.82 0 0 0-3.07 1.24c-.93 3.57 3.54 1.57 3.54 1.57m13.45-14.26c3.27-2.79-.77-3.22-.73-3.25-2-.24-3.44 1.78-3.44 1.78-.87 4.24 4.17 1.47 4.17 1.47M33.6 107.66a3.45 3.45 0 0 0-3.24.45c-1.8 3.14 3 2.37 3 2.37 3.38-1.26.2-2.82.2-2.82m7.06-7.52a3.69 3.69 0 0 0-2 2.63c1 3.47 3.84-.53 3.84-.53 1.5-3.33-1.85-2.1-1.85-2.1m-7.49 18.32a3.67 3.67 0 0 0-3.32 0c-2.18 2.86 2.7 2.74 2.7 2.74 3.57-.76.62-2.73.62-2.73m-7.46 7c-1-.93-2.77-.38-2.77-.38-2.43 2.08 1.68 2.52 1.68 2.52 3.12-.21 1.09-2.14 1.09-2.14m-2.26-23.76a3.5 3.5 0 0 0-2.4 2.19c.33 3.62 3.84.21 3.84.21 2.08-3-1.44-2.4-1.44-2.4m-9.7.94a2.86 2.86 0 0 0-1.95 1.78c.25 2.95 3.14.18 3.14.18 1.7-2.43-1.19-2-1.19-2m.71 14.63c-3.15-.71-1 2.85-1 2.85 2.08 2.36 2.35-.46 2.35-.46.14-1.33-1.37-2.39-1.37-2.39m63.12-22.87c-.85 4 4.11 1.46 4.14 1.5 3.26-2.57-.74-3.11-.74-3.11a4.23 4.23 0 0 0-3.4 1.61M43.38 125.5c-3.19-2.76-4.68 1.23-4.72 1.27 4 1.49 4.72-1.27 4.72-1.27m1-13.78a3.49 3.49 0 0 0-3.24-.43c-2.52 2.57 2.34 3.08 2.34 3.08 3.58-.3.9-2.65.9-2.65m60.43 9.5a4.14 4.14 0 0 0-3.54.93c-1.55 3.71 3.61 2.18 3.61 2.18 3.58-1.85-.07-3.11-.07-3.11m-8 7.26a2.81 2.81 0 0 0-2.55.84c-1.05 2.85 2.76 1.47 2.76 1.47 2.58-1.54-.21-2.31-.21-2.31m-6.38-6.62c-1.87-.12-3.12 1.77-3.16 1.8-.57 4 4 1.18 4 1.18 3-2.69-.89-3-.89-3m-11.75 9.5a2.89 2.89 0 0 0-2.31.28c-1.33 2.17 2.08 1.69 2.08 1.69 2.41-.84.23-2 .23-2m36.89-6.54a2.94 2.94 0 0 0-2.61.69c-1.19 2.78 2.68 1.61 2.68 1.61 2.68-1.36-.07-2.3-.07-2.3M130 116.3c-5.21.36-4.51 4.25-4.51 4.25 5.32-1.74 4.51-4.25 4.51-4.25m-72.55 15.36a2.56 2.56 0 0 0-2.31.28c-1.33 2.17 2.08 1.69 2.08 1.69 2.41-.84.23-2 .23-2m81.71-30.46c-5.2.89-2.51 5.54-2.48 5.58 4.61-2.65 2.48-5.58 2.48-5.58m-18.93 13.62c-5.18-.41-5 3.59-5 3.59 5.5-1 5-3.59 5-3.59m7.47-8a3.7 3.7 0 0 0-2.58 2.29c.21 3.79 3.94.32 3.94.32 2.27-3.08-1.36-2.61-1.36-2.61M58.19 66.51a4.09 4.09 0 0 0-3 2.37c-.09 4.35 4.35.7 4.35.7 2.77-3.34-1.3-3.07-1.3-3.07m-7.31-7.12c.28 2.38 2.73.48 2.73.48a2.24 2.24 0 0 0 .83-2.87c-2.78-1.86-3.61 2.41-3.61 2.41m9.93 19.26c-.13 4.31 4.35.7 4.35.7 2.77-3.34-1.31-3.07-1.31-3.07-2 .16-3 2.37-3 2.37m-35.1 16.2A2.27 2.27 0 0 0 27 92.12C24.52 89.85 23.06 94 23.06 94c0 2.4 2.65.89 2.65.89m9.75-.78c-2-2.68-4.18 1.11-4.18 1.11-.47 2.38 2.44 1.35 2.44 1.35a2.23 2.23 0 0 0 1.74-2.46M70.09 79c-.06 4.31 4.39.66 4.35.7 2.77-3.34-1.31-3.07-1.31-3.07-1.95.16-3 2.37-3 2.37m5.74-22.6c-1.9 2.07 1.47 2.57 1.44 2.54a2.82 2.82 0 0 0 3.18-1.55c-.29-3.66-4.62-1-4.62-1m6.8 10.49c-2.13.18-3.3 2.61-3.33 2.57 0 4.77 4.8.75 4.8.75 3-3.61-1.47-3.32-1.47-3.32M25.79 86.13c4.73-3 3.38-5.18 3.35-5.22-4.95 1.54-3.35 5.22-3.35 5.22m37-30.26c6.68-1.42 6-4.6 6-4.56-6.35-.3-6 4.56-6 4.56m8 10.48c3.21-2.93-.88-3.19-.88-3.19-2-.13-3.37 1.93-3.37 1.93-.66 4.25 4.25 1.26 4.25 1.26M74 46.63c-1.39 2.48 2 2.15 2.06 2.18a2.78 2.78 0 0 0 2.68-2.24c-1.11-3.52-4.74.06-4.74.06M54.4 88.15c-1 2.64 2.25 1.87 2.32 1.87a2.81 2.81 0 0 0 2.38-2.57c-1.62-3.33-4.7.7-4.7.7M78 31.23c5.55.61 5.88-2 5.88-2-4.86-1.85-5.88 2-5.88 2m-.24 5.82c-1.34-3.1-4.35.05-4.35.05-1 2.21 2 1.93 2 1.93a2.24 2.24 0 0 0 2.31-2M18.06 92a2.23 2.23 0 0 0 1.29-2.73c-2.47-2.27-3.93 1.83-3.93 1.83 0 2.4 2.64.9 2.64.9M91.5 38.49c-.62-3.35-4.24-.86-4.24-.86-1.5 1.91 1.56 2.3 1.56 2.3a2.27 2.27 0 0 0 2.68-1.44M38.22 84a2.24 2.24 0 0 0 .88-2.9c-2.78-1.86-3.61 2.42-3.61 2.42.28 2.38 2.73.48 2.73.48m10.07-6.82A2.83 2.83 0 0 0 49.71 74c-2.53-2.62-4.2 2.14-4.2 2.14-.13 2.82 2.78 1 2.78 1m-1.74 12.49c-2.08-3-4.48 1.45-4.48 1.45-.59 2.77 2.55 1.46 2.55 1.46a2.76 2.76 0 0 0 1.93-2.91M59.08 47c6.44-2.28 5.37-5.3 5.41-5.33-6.39.52-5.41 5.33-5.41 5.33M40.69 71.19c4.76-3 3.42-5.19 3.31-5.19-4.95 1.54-3.35 5.22-3.35 5.22M112.32 50a2.81 2.81 0 0 0 3.18-1.48c-.18-3.69-4.58-1.17-4.58-1.17-2 2.07 1.4 2.65 1.4 2.65m11.76 11.78c-.65 4.24 4.29 1.29 4.26 1.25 3.17-2.89-.88-3.18-.88-3.18-2-.13-3.38 1.93-3.38 1.93m-14.39 24c-1.06 4.61 4.55 1.73 4.51 1.69 3.71-2.91-.72-3.53-.72-3.53-2.1-.31-3.79 1.84-3.79 1.84M92 46.4c-.5-3.67-4.7-.78-4.63-.78-1.8 2.18 1.58 2.48 1.58 2.48a2.78 2.78 0 0 0 3-1.7m.23 27.16c-2.16.14-3.33 2.56-3.33 2.56 0 4.77 4.81.76 4.81.76 3-3.61-1.48-3.32-1.48-3.32M81.41 84.87c0 4.77 4.81.75 4.85.71 3-3.6-1.47-3.32-1.47-3.32-2.17.15-3.38 2.61-3.38 2.61m5.82-27.41c-.07 4.73 4.78.71 4.81.75 3-3.61-1.47-3.32-1.47-3.32-2.16.15-3.34 2.57-3.34 2.57m1.49-24.75c5.56.61 5.86-2 5.89-2-4.86-1.85-5.89 2-5.89 2m6.18 54.05c-.11 4.7 4.77.71 4.77.78 3-3.64-1.43-3.35-1.43-3.35-2.13.12-3.34 2.57-3.34 2.57m9.32-43.58A2.77 2.77 0 0 0 107 41c-1.07-3.55-4.73 0-4.73 0-1.42 2.45 2 2.18 2 2.18m7.24 20.23c3.77-2.83-.62-3.56-.65-3.6-2.14-.34-3.86 1.77-3.86 1.77-1.17 4.58 4.51 1.83 4.51 1.83m-5.66 9.22c-.46 4.75 4.76 1.13 4.76 1.13 3.26-3.38-1.19-3.44-1.19-3.44-2.19 0-3.57 2.31-3.57 2.31m-3.46-13.07c2.31-4.13-2-3-2.06-3-2.07.54-2.79 3.16-2.79 3.16.77 4.63 4.85-.17 4.85-.17m21.21 15.33c3.54-3.16-1-3.51-1-3.51-2.15-.13-3.7 2.09-3.7 2.09-.71 4.71 4.67 1.42 4.67 1.42" fill="#f16548"/><defs ><path id="B" d="M126.63,50.18c-2-3.91-23-18.73-23-18.73-14.48-12.61-14-23.55-14-23.55-.25.84,1.51,7.81,6.79,12.19C103.46,26,123.78,46,123.78,46Z"/><path id="C" d="M138.43,74s2.07.48,16.78-5.77,12.58-20,12.58-20c-1,.91-7,7.17-10.37,8.78-7.19,3.45-21.22,5.5-21.22,5.5Z"/><path id="D" d="M135,61.49s12.13,23.82,20,20.39c5.31-2.33,2.72-12.28,2.72-12.28C141.78,69.61,136,59.31,136,59.31Z"/><path id="E" d="M127.48 53.26c-1.48-4.16-16.25-21.81-16.25-21.81-12.74-14.34-10.36-23.07-10.36-23.07-.35.8-2.07 5.07 5.77 9.95C133.13 34.86 129.71 57 129.71 57z"/></defs></svg>